<?xml version="1.0" encoding="UTF-8" standalone="no"?>
<!-- Created with Inkscape (http://www.inkscape.org/) -->

<svg
   width="317.53833mm"
   height="76.995079mm"
   viewBox="0 0 317.53833 76.995079"
   version="1.1"
   id="svg1"
   xml:space="preserve"
   xmlns:inkscape="http://www.inkscape.org/namespaces/inkscape"
   xmlns:sodipodi="http://sodipodi.sourceforge.net/DTD/sodipodi-0.dtd"
   xmlns="http://www.w3.org/2000/svg"
   xmlns:svg="http://www.w3.org/2000/svg"><sodipodi:namedview
     id="namedview1"
     pagecolor="#505050"
     bordercolor="#eeeeee"
     borderopacity="1"
     inkscape:showpageshadow="0"
     inkscape:pageopacity="0"
     inkscape:pagecheckerboard="0"
     inkscape:deskcolor="#505050"
     inkscape:document-units="mm" /><defs
     id="defs1" /><g
     inkscape:label="Layer 1"
     inkscape:groupmode="layer"
     id="layer1"
     transform="translate(53.769165,-86.022087)"><rect
       style="opacity:1;fill:#ff0000;fill-opacity:0;stroke:none;stroke-width:1.05833;stroke-opacity:1"
       id="rect2"
       width="317.53833"
       height="76.995079"
       x="-53.769165"
       y="86.022087" /><path
       d="m -7.840678,142.44029 c -0.25931,0.16936 -0.52692,0.27138 -0.816001,0.30905 l -0.789685,-3.09503 c 0.297784,-0.0605 0.610453,-0.055 0.938008,0.0163 0.285072,0.067 0.5264,0.1855 0.723985,0.35539 0.242415,0.21511 0.406047,0.51031 0.490895,0.88562 0.146737,0.67967 -0.03666,1.18483 -0.547202,1.52864 z m -3.114685,7.00906 3.723472,-1.13247 -0.738845,-2.80893 c 0.325207,0.0303 0.749582,-0.0518 1.266539,-0.24481 0.6193286,-0.22998 1.1672618,-0.56148 1.640192,-0.97984 1.3121808,-1.1756 1.6936872,-2.76368 1.1525917,-4.75914 -0.3042411,-1.10084 -0.9981632,-1.84367 -2.0853733,-2.21383 -0.8775434,-0.29992 -1.9782684,-0.36251 -3.3087604,-0.18629 -1.525903,0.19964 -3.000566,0.59531 -4.414425,1.1987 z M 2.6893827,135.43291 c 0.2280622,0.37637 0.4672529,0.81248 0.7030633,1.30414 0.2759572,0.55971 0.5096236,1.11358 0.7051626,1.64708 0.4981213,1.38352 0.6366912,2.42204 0.4248191,3.12758 -0.063686,0.211 -0.12399,0.36644 -0.1833875,0.45304 -0.1715561,0.25857 -0.4006946,0.46606 -0.6807797,0.62125 -0.2879578,0.14979 -0.5762448,0.2241 -0.8727338,0.21755 -0.179959,-0.008 -0.3528348,-0.051 -0.5173809,-0.12334 -0.2171826,-0.0969 -0.4032032,-0.24761 -0.5725707,-0.45638 -0.4455739,-0.54871 -0.6933756,-1.43641 -0.74216886,-2.65645 -0.026705,-0.58556 0.00722,-1.25109 0.093914,-2.00197 0.034338,-0.2948 0.075766,-0.62525 0.13632,-1.00047 l 0.080587,-0.48881 0.079351,-0.49546 -4.0349409,0.45655 c -0.5516314,4.48373 0.076769,7.63518 1.89183652,9.45312 0.8872336,0.89216 1.95447418,1.38683 3.20048548,1.4774 0.4167246,0.0254 0.8393,0.009 1.2610984,-0.0495 0.1538711,-0.0218 0.2986328,-0.0556 0.4433944,-0.0895 0.051854,-0.0166 0.104944,-0.0264 0.1567974,-0.0429 0.039819,-0.008 0.079635,-0.0148 0.1115811,-0.0277 1.1245833,-0.34001 2.0229995,-0.89881 2.7109936,-1.66559 0.5227456,-0.58494 0.902544,-1.27371 1.1393955,-2.06631 C 8.659217,141.56498 8.5828113,139.82821 7.993766,137.8093 7.771931,137.06094 7.4829504,136.28391 7.1280607,135.48483 6.86043,134.8961 6.5728905,134.31107 6.2546425,133.7455 Z m 3.3206833,11.04089 -0.019905,0.003 -0.025308,0.0115 z m 0.5291772,-0.77154 c -0.00663,0.001 -0.019905,0.003 -0.045218,0.0153 z m 0,0 c -0.00663,0.001 -0.019905,0.003 -0.045218,0.0153 0.025308,-0.0115 0.038581,-0.0141 0.045218,-0.0153 z m 10.8204398,-13.21736 -9.5111316,1.39795 0.5008376,3.1603 3.251928,-0.44019 1.056121,8.25987 3.820359,-0.60544 -1.22907,-8.1436 2.629756,-0.35525 z m 13.58987,6.04199 c -0.530766,0.36844 -1.128646,0.53458 -1.79364,0.49841 -0.747063,-0.0391 -1.367976,-0.31248 -1.876128,-0.81829 -0.500586,-0.49999 -0.733663,-1.08918 -0.698357,-1.76087 0.0353,-0.67169 0.330729,-1.2274 0.885403,-1.67382 0.547981,-0.44556 1.201762,-0.65298 1.948826,-0.61385 0.561972,0.0291 1.067692,0.2017 1.517162,0.51774 l 1.418435,-2.44419 c -1.080377,-0.92843 -2.35046,-1.4306 -3.803552,-1.50739 -1.699303,-0.0857 -3.180658,0.40623 -4.443196,1.48235 -0.59458,0.50606 -1.061447,1.10446 -1.415731,1.78352 -0.357501,0.70673 -0.559902,1.45457 -0.600512,2.24267 -0.03974,0.7948 0.08031,1.56203 0.36016,2.30171 0.276369,0.7129 0.679671,1.35486 1.223291,1.92414 0.536058,0.56346 1.167054,1.01928 1.884556,1.35497 0.746016,0.34558 1.539852,0.5352 2.369855,0.58399 0.843392,0.047 1.658357,-0.0724 2.446634,-0.34494 0.755675,-0.26151 1.433714,-0.64907 2.03325,-1.16939 z m 9.062215,-0.92478 c -0.512805,0.4696 -1.104687,0.71009 -1.788343,0.72966 -0.68293,0.0263 -1.248856,-0.18416 -1.703762,-0.62387 -0.454181,-0.43299 -0.662032,-0.97408 -0.629538,-1.61584 0.03994,-0.63576 0.312943,-1.18808 0.812326,-1.65623 0.51353,-0.46288 1.105413,-0.70338 1.788343,-0.72966 0.683656,-0.0196 1.249582,0.19087 1.711199,0.62985 0.44747,0.43373 0.65532,0.97481 0.622102,1.60986 -0.03921,0.64247 -0.312218,1.1948 -0.812327,1.65623 z m -5.73766,-5.53151 c -0.605499,0.55431 -1.087474,1.18353 -1.445202,1.89438 -0.362988,0.725 -0.565811,1.487 -0.615905,2.28004 -0.04411,0.78558 0.07141,1.54035 0.358517,2.24941 0.270787,0.68367 0.682697,1.29098 1.220858,1.80995 0.538161,0.51897 1.172099,0.91896 1.900366,1.18654 0.750576,0.28554 1.5456,0.41689 2.391781,0.39334 1.711769,-0.056 3.207528,-0.66575 4.486548,-1.83602 0.605498,-0.5543 1.080763,-1.1828 1.431779,-1.89292 0.3697,-0.72572 0.579233,-1.48845 0.622617,-2.28075 0.04411,-0.7856 -0.07068,-1.53366 -0.351806,-2.25016 -0.277498,-0.68294 -0.689408,-1.29024 -1.227569,-1.80922 -0.544872,-0.51825 -1.178812,-0.91823 -1.900366,-1.18653 -0.750577,-0.28554 -1.5456,-0.4169 -2.38507,-0.39408 -1.71177,0.056 -3.207528,0.66576 -4.486548,1.83602 z m 10.489491,-2.48795 0.774556,11.52004 7.799889,-0.76876 -0.257858,-3.58251 -3.728501,0.21663 -0.367401,-7.70685 z m 16.645173,6.16357 c -0.529711,0.45044 -1.130029,0.66904 -1.813942,0.66346 -0.683437,0.001 -1.241248,-0.22991 -1.679693,-0.68603 -0.437967,-0.44938 -0.625799,-0.99775 -0.56975,-1.63788 0.06325,-0.63387 0.356379,-1.17578 0.872624,-1.62526 0.530189,-0.44371 1.130507,-0.6623 1.813942,-0.66347 0.683913,0.006 1.241725,0.23665 1.686905,0.69229 0.431233,0.44986 0.619064,0.99823 0.562538,1.63162 -0.06278,0.64061 -0.355901,1.18252 -0.872624,1.62527 z m -5.530571,-5.73855 c -0.625454,0.53168 -1.130221,1.14276 -1.513822,1.83999 -0.389378,0.71117 -0.620058,1.46522 -0.699253,2.25587 -0.07294,0.78345 0.01477,1.54194 0.275636,2.26107 0.245488,0.69316 0.634809,1.31519 1.15354,1.85358 0.518732,0.5384 1.137547,0.9614 1.855492,1.25556 0.73958,0.31291 1.52924,0.47339 2.375715,0.48095 1.712674,0.007 3.229822,-0.54747 4.550973,-1.66996 0.625454,-0.53169 1.123486,-1.1423 1.500353,-1.83904 0.396111,-0.71166 0.633527,-1.46618 0.705988,-2.25635 0.07294,-0.78344 -0.01429,-1.53521 -0.268903,-2.26155 -0.252221,-0.69268 -0.641542,-1.3147 -1.160274,-1.8531 -0.525465,-0.53792 -1.144281,-0.96093 -1.855492,-1.25555 -0.73958,-0.31293 -1.529241,-0.4734 -2.368981,-0.48144 -1.712674,-0.007 -3.229823,0.54747 -4.550972,1.66997 z m 20.619999,6.71255 -2.461664,-2.47359 c 0.454202,-0.23333 0.815825,-0.55646 1.085574,-0.95589 0.212962,-0.32211 0.362781,-0.68822 0.449104,-1.10508 0.09698,-0.47151 0.108087,-0.90472 0.04078,-1.28649 -0.146532,-1.37808 -0.707557,-2.40998 -1.696206,-3.08825 -0.785738,-0.54695 -1.822733,-0.85767 -3.110987,-0.93215 -1.471328,-0.0851 -2.916109,0.0784 -4.333991,0.49737 l 0.16954,11.23936 3.787496,-0.0902 -0.196303,-3.74814 3.23532,4.46775 z m -5.595755,-4.62128 c -0.271448,0.1088 -0.546075,0.15704 -0.817139,0.1442 l -0.169602,-2.72206 c 0.290231,-0.009 0.583279,0.0371 0.879862,0.14995 0.255075,0.0948 0.457986,0.22613 0.609085,0.40072 0.180183,0.21364 0.275554,0.4858 0.28576,0.80973 0.01084,0.59429 -0.25181,1.00012 -0.787966,1.21746 z m 9.700159,-4.91055 -0.33082,11.23813 4.123834,0.0968 -0.07707,-11.31147 z m 8.735214,10.69124 0.08695,-3.60766 6.760868,3.95197 0.394512,-11.77809 -4.473512,0.142 0.164534,4.87138 -6.563751,-4.48988 -0.64325,10.63587 z m 17.411572,-11.55854 -9.613205,-0.0446 0.0211,3.19968 3.281155,0.0526 -0.19488,8.32483 3.86795,-0.0255 0.006,-8.23584 2.65329,0.0433 z m 7.94117,7.95361 c -0.56423,0.40638 -1.18017,0.57599 -1.86143,0.51544 -0.68131,-0.0538 -1.21873,-0.329 -1.61908,-0.81891 -0.4004,-0.48315 -0.54353,-1.04484 -0.43618,-1.67838 0.11403,-0.62674 0.44979,-1.14332 1.00051,-1.54983 0.56416,-0.39963 1.18011,-0.56924 1.86142,-0.51543 0.68126,0.0605 1.21867,0.33575 1.62576,0.82571 0.39367,0.48309 0.53678,1.04478 0.4295,1.67157 -0.11409,0.63349 -0.44985,1.15007 -1.0005,1.54983 z m -5.05114,-6.16475 c -0.66619,0.47965 -1.21847,1.04817 -1.6569,1.71228 -0.44531,0.67756 -0.73589,1.41061 -0.87842,2.19233 -0.13571,0.77504 -0.10928,1.53814 0.0929,2.27592 0.18895,0.71065 0.52698,1.36197 1.00074,1.94034 0.47375,0.57837 1.05654,1.04978 1.7485,1.40072 0.71202,0.37138 1.48622,0.59484 2.32934,0.67045 1.70657,0.14466 3.26339,-0.28593 4.67053,-1.29854 0.66619,-0.47966 1.21172,-1.04823 1.6434,-1.71242 0.45206,-0.67749 0.74939,-1.41047 0.88517,-2.19226 0.13571,-0.77504 0.10927,-1.53138 -0.0862,-2.27585 -0.19569,-0.71072 -0.53372,-1.36205 -1.00748,-1.94042 -0.4805,-0.57843 -1.06329,-1.04984 -1.7485,-1.40071 -0.71202,-0.37139 -1.48622,-0.59485 -2.32259,-0.67039 -1.70657,-0.14466 -3.26339,0.28594 -4.67054,1.29854 z m 20.11607,2.66435 -3.25903,-4.50182 -3.24015,2.88091 3.91631,4.43519 -0.15472,4.80386 4.31134,0.13884 0.23025,-4.63259 4.53636,-4.3318 -2.98188,-2.8314 z m 13.78558,4.4174 c -0.5801,0.38336 -1.20238,0.52806 -1.88065,0.44016 -0.6786,-0.0812 -1.20452,-0.37773 -1.58483,-0.88334 -0.38066,-0.49886 -0.50108,-1.06586 -0.36835,-1.69457 0.13915,-0.62164 0.4954,-1.12431 1.06202,-1.50835 0.57977,-0.37662 1.20204,-0.52131 1.88065,-0.44016 0.67827,0.0879 1.20419,0.38448 1.59124,0.89042 0.37392,0.49853 0.49434,1.06552 0.36194,1.68749 -0.13948,0.62839 -0.49573,1.13105 -1.06202,1.50835 z m -4.79917,-6.36289 c -0.68493,0.45249 -1.25962,0.99833 -1.7244,1.64428 -0.4722,0.6591 -0.79202,1.37987 -0.96586,2.15524 -0.16677,0.76895 -0.17105,1.53249 0.001,2.2778 0.16022,0.71768 0.47179,1.38207 0.9219,1.97902 0.45012,0.59695 1.01348,1.0914 1.69077,1.46989 0.69651,0.39972 1.46109,0.65413 2.3005,0.76358 1.69937,0.21316 3.27224,-0.15449 4.71897,-1.10969 0.68494,-0.45248 1.25289,-0.99866 1.71093,-1.64495 0.47893,-0.65877 0.8055,-1.3792 0.9726,-2.1549 0.16676,-0.76896 0.1707,-1.52575 0.005,-2.27748 -0.16696,-0.718 -0.47854,-1.3824 -0.92865,-1.97935 -0.45685,-0.59728 -1.02022,-1.09174 -1.69077,-1.46988 -0.6965,-0.39972 -1.46109,-0.65413 -2.29375,-0.76324 -1.69937,-0.21317 -3.27224,0.15448 -4.71897,1.10968 z m 16.90576,-0.32638 c 0.12759,0.42117 0.25116,0.90297 0.35768,1.43775 0.12852,0.61068 0.21754,1.20518 0.27467,1.77051 0.13945,1.46384 0.0161,2.50428 -0.36408,3.13524 -0.11403,0.18861 -0.211,0.32424 -0.29001,0.3934 -0.23033,0.20794 -0.50377,0.35213 -0.81358,0.43301 -0.31611,0.0737 -0.61383,0.0742 -0.89943,-0.006 -0.17243,-0.0521 -0.32916,-0.13691 -0.47063,-0.24779 -0.18638,-0.1477 -0.3292,-0.33987 -0.4415,-0.58413 -0.29558,-0.64206 -0.31549,-1.56348 -0.0602,-2.75752 0.11935,-0.57388 0.31726,-1.21021 0.58747,-1.91614 0.10638,-0.27707 0.22846,-0.58693 0.38016,-0.9354 l 0.1993,-0.45357 0.19975,-0.4603 -4.02212,-0.55836 c -1.64635,4.20686 -1.81912,7.4157 -0.5116,9.62699 0.63827,1.08431 1.5495,1.82821 2.73411,2.22495 0.39743,0.12791 0.81101,0.2163 1.23401,0.26472 0.15447,0.0171 0.3031,0.0201 0.45174,0.0233 0.0543,-0.003 0.10823,4.2e-4 0.16254,-0.003 0.0404,0.003 0.0808,0.005 0.11495,8.7e-4 1.17378,-0.0505 2.18272,-0.36903 3.03937,-0.94125 0.65148,-0.43702 1.19023,-1.01009 1.61624,-1.71919 0.7838,-1.30773 1.14049,-3.00919 1.07053,-5.11111 -0.0293,-0.77997 -0.11657,-1.6044 -0.26222,-2.46652 -0.11326,-0.63671 -0.24673,-1.27477 -0.41478,-1.9016 z m 0.47885,11.51951 -0.0202,-0.001 -0.0274,0.005 z m 0.70398,-0.61621 c -0.007,-4.4e-4 -0.0202,-0.001 -0.0476,0.004 z m 0,0 c -0.007,-4.4e-4 -0.0202,-0.001 -0.0476,0.004 0.0274,-0.005 0.0408,-0.004 0.0476,-0.004 z m 13.15906,-0.53782 -2.11105,-2.77882 c 0.48119,-0.1709 0.88255,-0.4431 1.20299,-0.80313 0.25389,-0.29094 0.45104,-0.6339 0.59201,-1.03559 0.15878,-0.45443 0.22737,-0.88231 0.2114,-1.26965 0.038,-1.38532 -0.38096,-2.48264 -1.27069,-3.2863 -0.70607,-0.64652 -1.69257,-1.09231 -2.95949,-1.33737 -1.44696,-0.27998 -2.90065,-0.30991 -4.36164,-0.083 l -1.32582,11.16216 3.76588,0.414 0.30361,-3.74097 2.61279,4.85812 z m -4.93188,-5.32402 c -0.28351,0.0718 -0.56211,0.0831 -0.82905,0.0343 l 0.1937,-2.72044 c 0.28877,0.0302 0.57318,0.11428 0.85212,0.26557 0.24021,0.12785 0.42387,0.28498 0.55042,0.47812 0.15019,0.23568 0.20854,0.5181 0.1756,0.84052 -0.0683,0.59046 -0.3825,0.95776 -0.94279,1.10193 z m 16.1937,2.78789 c -0.0559,-0.0529 -0.28789,-0.24538 -0.68877,-0.58327 -0.40022,-0.34461 -0.73525,-0.66245 -1.01179,-0.95419 -0.82829,-0.88866 -1.01474,-1.54462 -0.5513,-1.98063 0.3816,-0.36267 0.79801,-0.38953 1.25661,-0.0867 0.46531,0.30353 0.81123,0.7174 1.03843,1.23491 l 1.99087,-2.51739 c -1.11695,-0.7814 -2.04471,-1.27964 -2.79064,-1.48868 -1.14173,-0.32259 -2.24471,-0.34968 -3.3163,-0.0752 -0.82787,0.21024 -1.50023,0.63248 -2.0097,1.26068 -0.52622,0.66045 -0.77017,1.41652 -0.73857,2.26751 0.0399,0.9739 0.51487,1.86851 1.43172,2.68449 0.14933,0.13678 0.46883,0.40561 0.96585,0.80044 0.49702,0.39482 0.81927,0.70464 0.98018,0.93073 0.18381,0.26906 0.2729,0.53558 0.27334,0.80695 -0.001,0.4272 -0.19714,0.625 -0.58613,0.57995 -0.56762,-0.0219 -1.00892,-0.43162 -1.3185,-1.21499 l -2.22645,2.22291 c 0.89659,0.74615 1.6141,1.24406 2.15254,1.49373 0.6816,0.31124 1.28106,0.4923 1.79097,0.54925 0.93987,0.0992 1.74438,-0.0116 2.41895,-0.31827 0.60342,-0.27302 1.12324,-0.73062 1.57159,-1.35804 0.43359,-0.61531 0.63338,-1.26718 0.59395,-1.96972 -0.0367,-0.7294 -0.32597,-1.37511 -0.86023,-1.94318 -0.0733,-0.0819 -0.19779,-0.19581 -0.36662,-0.3413 z m 11.92132,-4.87643 -9.54231,-1.16631 -0.35249,3.18026 3.25259,0.43522 -1.16517,8.2452 3.84449,0.42611 0.96765,-8.17879 2.6301,0.35263 z m 6.5315,4.89363 -2.82587,-4.78561 -3.49423,2.56683 3.4865,4.78044 -0.60117,4.76861 4.2797,0.53954 0.66043,-4.59105 4.91986,-3.89076 -2.7054,-3.09667 z m 7.58634,-2.70849 -1.85083,11.39675 7.77166,1.01515 0.55903,-3.54801 -3.68089,-0.6322 1.38505,-7.59027 z m 16.42944,1.70032 -7.71439,-1.08632 -2.10722,11.16468 7.88755,1.61095 0.71128,-3.07389 -4.42533,-0.75891 0.29823,-1.29302 2.28387,0.42779 0.68703,-2.9137 -2.38924,-0.27306 0.29802,-1.38181 3.90697,0.75552 z"
       id="text2"
       style="font-size:12.3775px;font-family:'Wicked Mouse';-inkscape-font-specification:'Wicked Mouse, Normal';fill:#e55c4e;fill-opacity:1;stroke:#f9f9f9;stroke-width:0.864061"
       aria-label="PUT COLOR INTO YOUR STYLE" /></g></svg>
